<svg width="48" height="48" viewBox="0 0 48 48" fill="none" xmlns="http://www.w3.org/2000/svg">
<path d="M0 5C0 2.23858 2.23858 0 5 0H43C45.7614 0 48 2.23858 48 5V43C48 45.7614 45.7614 48 43 48H5C2.23858 48 0 45.7614 0 43V5Z" fill="white"/>
<g clip-path="url(#clip0_239_92)">
<rect x="5" y="5" width="37" height="38" fill="#0B100F"/>
<path d="M-4.34863 19.3566C-4.34863 17.5207 -4.34863 15.6847 -4.33525 13.8335C-4.05427 13.8975 -3.78164 13.9595 -3.53009 14.0894C-3.44362 14.1341 -3.33217 14.1249 -3.24997 14.065C-3.11511 13.9668 -2.93627 13.8804 -2.8709 13.7438C-2.56978 13.1143 -1.97942 12.9119 -1.39269 12.7258C-0.940381 12.5824 -0.674976 12.3183 -0.559577 11.8644C-0.353014 11.0521 -0.163002 10.2371 -0.00902965 9.41255C0.114132 8.75299 0.277223 8.09151 0.640392 7.52076C1.06586 6.85209 1.53824 6.21197 2.01091 5.57473C2.57177 4.81861 3.27453 4.1973 3.9952 3.60002C4.67896 3.03332 5.41657 2.56068 6.29206 2.32316C6.76779 2.1941 7.22878 2.00797 7.69137 1.83419C8.56199 1.50713 9.36742 1.04594 10.1852 0.610292C10.5276 0.427912 10.8738 0.255354 11.2097 0.0583148C11.9453 -0.373272 12.6561 -0.850484 13.4972 -1.08916C13.9674 -1.22259 14.4389 -1.3911 14.8502 -1.68186C15.0013 -1.78866 15.1813 -1.84601 15.3611 -1.89668C16.3616 -2.17862 17.3745 -2.34711 18.4207 -2.30247C19.756 -2.2455 21.0859 -2.27994 22.4061 -2.53736C23.0944 -2.67154 23.7907 -2.68236 24.4771 -2.46247C24.7013 -2.39068 24.9458 -2.37856 25.1823 -2.34965C26.9539 -2.13305 28.7388 -2.06634 30.513 -1.87483C31.382 -1.78104 32.2598 -1.75625 33.0601 -1.3425C33.1371 -1.3027 33.2301 -1.29507 33.3131 -1.26533C34.2274 -0.937675 35.1276 -0.59403 35.9394 -0.0327692C36.724 0.50966 37.4679 1.10321 38.2352 1.66683C38.9745 2.20991 39.702 2.76528 40.3728 3.39709C40.8598 3.85575 41.3561 4.30826 41.8784 4.73092C42.3782 5.13544 42.8757 5.5436 43.2959 6.03964C43.7348 6.55755 44.1726 7.08396 44.6706 7.54197C45.1562 7.98858 45.4952 8.54861 45.9489 9.01731C46.1776 9.25354 46.3 9.58858 46.5071 9.85011C46.8852 10.3278 47.1734 10.8432 47.3299 11.4343C47.411 11.7407 47.4924 12.0588 47.6917 12.3101C48.1111 12.839 48.4816 13.3901 48.712 14.0312C48.8557 14.4313 49.155 14.6595 49.5863 14.6942C49.714 14.7044 49.8209 14.7685 49.9383 14.8048C49.9383 20.9985 49.9383 27.1923 49.9248 33.4132C49.8253 33.4631 49.8262 33.5441 49.7997 33.6066C49.6487 33.9627 49.5266 34.3346 49.3404 34.6712C49.0827 35.1371 48.9569 35.6329 48.8771 36.1496C48.7184 37.1756 48.3187 38.1173 47.7915 38.9978C47.578 39.3543 47.2968 39.7165 46.7627 39.64C46.5858 39.6146 46.4359 39.7421 46.2925 39.8529C45.6652 40.337 45.0344 40.8166 44.3998 41.2911C44.0045 41.5868 43.5808 41.8516 43.272 42.244C42.9925 42.5992 42.6727 42.8741 42.2801 43.1218C41.4851 43.6235 40.6625 44.0855 39.9041 44.6478C39.2884 45.1042 38.7472 45.645 38.3332 46.2669C37.9046 46.9106 37.4513 47.4855 36.7843 47.8897C36.5701 48.0194 36.3714 48.1869 36.2065 48.3886C35.8514 48.8231 35.5354 49.3026 34.9713 49.5114C34.9001 49.5378 34.8475 49.6103 34.7796 49.6502C34.5125 49.8076 34.3202 50.0459 34.1183 50.2727C34.1337 50.2825 34.1633 50.3013 34.1929 50.3201C26.222 50.3201 18.251 50.3201 10.2542 50.3062C10.0687 49.8931 9.7584 49.6309 9.38603 49.4611C8.33451 48.9816 7.28147 48.5052 6.21625 48.0556C5.63895 47.812 5.04238 47.6168 4.47918 47.337C3.49966 46.8503 2.82161 46.0319 2.13848 45.2252C1.8908 44.9327 1.67257 44.5998 1.53085 44.2359C1.09927 43.1279 0.520536 42.077 0.229083 40.9146C0.0704129 40.2818 -0.337879 39.6785 -0.00630691 38.9847C0.0113761 38.9477 0.00625513 38.8974 0.00396464 38.8537C-0.0581209 37.6689 -0.00589981 36.4688 -0.504154 35.3453C-0.783879 34.7145 -0.834959 34.0007 -1.15302 33.39C-1.45663 32.807 -1.36023 32.2824 -1.0694 31.7589C-0.952875 31.5491 -0.904261 31.3415 -0.893352 31.107C-0.862685 30.4479 -0.843227 29.7913 -0.574548 29.1631C-0.313191 28.552 -0.293213 27.9 -0.345663 27.2383C-0.397927 26.5789 -0.628062 25.9463 -0.599876 25.2748C-0.578006 24.7537 -0.674016 24.2385 -0.759953 23.7249C-0.78561 23.5716 -0.879822 23.4947 -1.00281 23.406C-1.33777 23.1647 -1.62229 22.889 -1.54553 22.4052C-1.48914 22.0498 -1.45541 21.6881 -1.54245 21.3275C-1.60679 21.061 -1.70877 20.8575 -2.02699 20.8161C-2.23967 20.7885 -2.41045 20.6593 -2.52987 20.4628C-2.75823 20.087 -3.00221 19.7208 -3.2386 19.3499C-3.46465 18.9952 -3.80459 19.0781 -4.13987 19.0973C-4.33612 19.1086 -4.27241 19.2775 -4.34863 19.3566ZM32.5197 10.9914C32.6388 11.0671 32.757 11.1442 32.8769 11.2184C34.3451 12.127 35.6389 13.2432 36.7589 14.5509C37.9505 15.9422 38.8691 17.5027 39.5345 19.2116C40.0197 20.4578 40.3383 21.7471 40.4959 23.0702C40.5831 23.8029 40.6267 24.5449 40.6011 25.286C40.591 25.5775 40.5614 25.8684 40.5366 26.2178C40.3946 26.0719 40.4062 25.9515 40.4051 25.8458C40.3964 25.0144 40.2464 24.2037 40.0773 23.3931C39.7609 21.877 39.2658 20.428 38.5596 19.0461C37.3003 16.5818 35.5934 14.5051 33.3091 12.9215C31.6345 11.7605 29.7789 11.0439 27.7628 10.7677C26.8183 10.6384 25.8652 10.6368 24.9105 10.7309C23.8224 10.8382 22.7754 11.0949 21.7575 11.4827C20.3344 12.025 19.1016 12.8656 17.9845 13.8876C17.8867 13.977 17.8042 14.1082 17.6366 14.0906C17.5485 13.9216 17.5966 13.7513 17.5894 13.5878C17.5702 13.1497 17.2874 12.9497 16.8718 13.098C16.7657 13.1358 16.6659 13.1994 16.5731 13.2651C16.0966 13.602 15.7475 14.0627 15.4121 14.5252C14.5374 15.7314 13.6829 16.9523 12.8248 18.1704C12.3134 18.8963 11.732 19.5557 11.0203 20.0921C10.3318 20.6109 9.57427 20.9945 8.70328 21.0482C7.14931 21.1439 5.77892 19.8765 5.70445 18.3155C5.69896 18.2004 5.71027 18.0789 5.61788 17.9407C5.45911 18.5044 5.43549 19.0373 5.42997 19.5728C5.41898 20.6389 5.65111 21.6313 6.40661 22.425C7.49608 23.5695 8.87217 23.7898 10.3547 23.5251C11.7209 23.2811 12.8974 22.5964 14.0319 21.835C15.1995 21.0515 16.263 20.1337 17.3638 19.2638C18.4947 18.3701 19.6861 17.5668 20.986 16.9345C22.0593 16.4125 23.1709 15.993 24.3332 15.7121C25.1896 15.5052 26.055 15.3197 26.9326 15.2768C27.9348 15.2278 28.9399 15.2591 29.9384 15.4228C31.4608 15.6723 32.8605 16.2201 34.1302 17.0884C35.4274 17.9755 36.4822 19.1075 37.3894 20.3827C38.6934 22.2158 39.433 24.2622 39.5974 26.4946C39.7179 28.1301 39.5338 29.7536 39.0557 31.3277C38.1946 34.1633 36.6422 36.5816 34.5403 38.659C34.4085 38.7892 34.272 38.9147 34.1423 39.047C34.0128 39.179 33.889 39.3166 33.7312 39.4855C35.1933 38.5893 36.4071 37.4812 37.4705 36.207C38.217 35.3124 38.8852 34.3642 39.4573 33.3438C40.3425 31.7649 41.0006 30.1004 41.4308 28.3474C41.6738 27.3572 41.8156 26.3501 41.8921 25.3291C41.9846 24.0952 42.002 22.8715 41.8442 21.6408C41.7537 20.9347 41.6611 20.2324 41.4974 19.5391C41.2871 18.6488 41.0521 17.7673 40.7252 16.9102C39.4894 13.6694 37.4913 11.0006 34.709 8.92662C31.5489 6.57118 28.0051 5.25134 24.0552 5.06154C22.299 4.97715 20.5695 5.17496 18.8607 5.58063C17.6366 5.87122 16.4672 6.31211 15.331 6.84332C13.4765 7.71036 11.8138 8.85955 10.3274 10.2647C9.00911 11.5109 7.86938 12.8891 7.09078 14.5445C6.83469 15.0889 6.62728 15.6557 6.47213 16.2266C6.36165 16.6331 6.39452 17.0939 6.47571 17.5359C6.66386 18.5602 7.61005 19.2647 8.64959 19.1706C9.47827 19.0956 10.1383 18.7029 10.7348 18.174C11.6197 17.3894 12.3095 16.4368 12.9849 15.4776C13.986 14.056 15.1195 12.7576 16.4712 11.6584C16.8116 11.3816 17.1504 11.0974 17.5662 10.9255C18.0499 10.7256 18.502 10.8245 18.811 11.2446C18.9362 11.4147 19.0239 11.3756 19.1478 11.2609C20.7918 9.73957 22.7965 9.10596 24.9771 8.93155C25.8701 8.86013 26.7596 8.9851 27.6349 9.14557C29.359 9.46163 30.9749 10.0825 32.5197 10.9914ZM12.6381 39.8946C14.4732 41.1244 16.4605 42.0044 18.6149 42.51C19.4488 42.7057 20.2957 42.8469 21.1438 42.8889C22.0826 42.9355 23.0277 42.9525 23.9715 42.8495C24.9483 42.7428 25.908 42.5674 26.8348 42.2506C29.5534 41.3213 31.8035 39.7295 33.5626 37.4529C34.7885 35.8661 35.7259 34.136 36.2602 32.1939C36.5059 31.3011 36.7216 30.3998 36.7573 29.4782C36.7919 28.5837 36.8108 27.6869 36.6908 26.7872C36.5694 25.8762 36.3949 24.987 36.0854 24.1229C35.5648 22.6693 34.8238 21.3351 33.744 20.2309C31.5406 17.9777 28.8627 16.9237 25.6904 17.2031C24.0603 17.3467 22.528 17.8167 21.0741 18.5534C19.6082 19.2963 18.2987 20.2659 17.0629 21.3398C17.0087 21.3869 16.9197 21.4192 16.9416 21.5426C17.0633 21.525 17.1836 21.5092 17.3033 21.4901C17.7566 21.4176 18.2123 21.318 18.671 21.3732C19.2815 21.4467 19.8897 21.5282 20.4779 21.7413C21.5966 22.1465 22.5266 22.8025 23.259 23.7327C24.5861 25.4184 24.8432 27.3486 24.4633 29.3876C24.2701 30.4245 23.8548 31.4115 23.2653 32.2804C21.4413 34.969 18.8651 36.3657 15.6183 36.4565C13.9655 36.5027 12.3847 36.1131 10.8786 35.4168C8.76538 34.4397 7.03024 33.0401 5.83908 31.0148C5.81721 30.9776 5.8119 30.9069 5.73145 30.9297C5.80492 31.2327 5.94825 31.5062 6.05996 31.7914C6.55434 33.0536 7.19198 34.2428 7.97896 35.3438C9.25153 37.1243 10.7836 38.649 12.6381 39.8946Z" fill="white"/>
<path d="M16.5616 8.47388C16.8244 8.27355 17.0812 8.14019 17.4109 8.10749C18.0231 8.04677 18.3821 8.55437 18.2471 9.10815C18.1058 9.6881 17.4141 10.2458 16.8254 10.2815C16.2796 10.3145 15.9326 9.77327 16.0766 9.26932C16.1629 8.96753 16.309 8.69857 16.5616 8.47388Z" fill="white"/>
<path d="M19.6994 15.2869C19.3667 15.0932 19.2898 14.9178 19.3913 14.579C19.532 14.1096 19.8536 13.8156 20.3221 13.6933C20.6518 13.6073 20.9769 13.8905 20.953 14.2214C20.911 14.8006 20.3112 15.322 19.6994 15.2869Z" fill="white"/>
<path d="M14.6314 11.556C14.4011 10.9873 14.8766 10.5619 15.3102 10.6079C15.5401 10.6323 15.6986 10.7934 15.7055 11.0232C15.7142 11.3123 15.5355 11.621 15.2644 11.7105C15.045 11.783 14.8092 11.8072 14.6314 11.556Z" fill="white"/>
<path d="M27.8802 37.5083C25.3728 39.8474 22.4176 41.0083 19.0064 40.9998C18.1064 40.9975 17.2191 40.8823 16.3506 40.6149C16.3986 40.4708 16.4703 40.4852 16.5415 40.4957C17.5957 40.6514 18.6318 40.519 19.6677 40.32C20.681 40.1254 21.6396 39.7773 22.5528 39.3116C24.5657 38.2849 26.155 36.7863 27.3827 34.9004C28.1393 33.7382 28.6985 32.4833 29.0082 31.1328C29.2869 29.9175 29.3864 28.691 29.1592 27.4427C28.6094 24.4235 26.8682 22.3713 24.084 21.1785C22.8831 20.664 21.6048 20.5067 20.2986 20.6102C20.1934 20.6186 20.0871 20.6109 19.9814 20.6139C19.8877 20.6167 19.7942 20.624 19.6739 20.5685C19.876 20.4659 20.0709 20.3446 20.2813 20.264C21.1744 19.9218 22.0755 19.6751 23.06 19.7454C24.0367 19.8152 25.01 19.851 25.9505 20.1599C27.1362 20.5493 28.1834 21.1596 29.0595 22.0547C30.2451 23.266 31.0085 24.7113 31.372 26.3537C31.6257 27.5 31.6917 28.6612 31.575 29.8447C31.338 32.2483 30.4384 34.3679 28.9892 36.2755C28.6579 36.7115 28.2926 37.1189 27.8802 37.5083Z" fill="white"/>
</g>
<rect x="3.5" y="3.5" width="40" height="41" stroke="white" stroke-width="3"/>
<defs>
<clipPath id="clip0_239_92">
<rect x="5" y="5" width="37" height="38" fill="white"/>
</clipPath>
</defs>
</svg>
